<svg class="header-logo" xmlns="http://www.w3.org/2000/svg" viewBox="0 0 89 20">
	<g fill="#159e49">
		<polygon points="0 19.97 76.61 19.97 76.61 17.96 0 17.96 0 19.97"></polygon>
		<polygon points="81.92 19.97 88.5 19.97 88.5 17.96 81.92 17.96 81.92 19.97"></polygon>
	</g>
	<g fill="#333433">
		<path d="M14.93,14.93h2.74V4.6H14.93ZM14.66,1.62A1.61,1.61,0,0,1,15.13.44,1.66,1.66,0,0,1,16.31,0a1.59,1.59,0,0,1,1.18.44A1.59,1.59,0,0,1,18,1.62a1.55,1.55,0,0,1-.47,1.18,1.6,1.6,0,0,1-1.18.44,1.66,1.66,0,0,1-1.18-.44A1.54,1.54,0,0,1,14.66,1.62Z"></path>
		<path d="M24,4.57h2.8V6.64H24v5a1.39,1.39,0,0,0,.39,1.06,1.35,1.35,0,0,0,1,.42,5.46,5.46,0,0,0,1.3-.18l.35,2a9.5,9.5,0,0,1-2.3.32A4.14,4.14,0,0,1,23.36,15a3.25,3.25,0,0,1-1.09-.67,3.51,3.51,0,0,1-.71-1.07,3.45,3.45,0,0,1-.23-1.35V6.7H19.44V4.63h1.89v-3H24v3Z"></path>
		<path d="M28.41,7.43a2.71,2.71,0,0,1,.29-1.26,3.72,3.72,0,0,1,.8-1,4.29,4.29,0,0,1,1.24-.65,5.7,5.7,0,0,1,1.59-.23,10.56,10.56,0,0,1,1.83.17A12.36,12.36,0,0,1,36.08,5l-.59,1.94A10.93,10.93,0,0,0,34,6.46a6.06,6.06,0,0,0-1.41-.18,1.91,1.91,0,0,0-1.15.3A.91.91,0,0,0,31,7.4a.76.76,0,0,0,.42.71,4.55,4.55,0,0,0,1,.42c.41.11.82.23,1.3.32A4.49,4.49,0,0,1,35,9.38a3.14,3.14,0,0,1,1,.94,3,3,0,0,1,.41,1.6,2.91,2.91,0,0,1-.29,1.3,3.69,3.69,0,0,1-.83,1,4,4,0,0,1-1.3.68,6.15,6.15,0,0,1-1.65.23,11,11,0,0,1-4-.82l.56-1.92a8.65,8.65,0,0,0,3.27.74,2.07,2.07,0,0,0,1.21-.33,1,1,0,0,0,.45-.88.84.84,0,0,0-.42-.74,3.2,3.2,0,0,0-1-.44c-.41-.12-.83-.24-1.3-.36a5.08,5.08,0,0,1-1.3-.53,3,3,0,0,1-1-.91,2.64,2.64,0,0,1-.38-1.54"></path>
		<path d="M42,4.57h2.8V6.64H42v5a1.37,1.37,0,0,0,1.41,1.48,5.33,5.33,0,0,0,1.3-.18l.35,2a9.43,9.43,0,0,1-2.3.32A4,4,0,0,1,41.33,15a3.06,3.06,0,0,1-1.09-.67,2.91,2.91,0,0,1-.71-1.07,3.28,3.28,0,0,1-.24-1.35V6.7H37.4V4.63h1.89v-3h2.63v3Z"></path>
		<path d="M49.09,11.77a1.37,1.37,0,0,0,.5,1.06,1.85,1.85,0,0,0,1.27.44,2.34,2.34,0,0,0,1.71-.67,2.39,2.39,0,0,0,.65-1.74v-.62A6,6,0,0,0,51.53,10a3,3,0,0,0-1.8.47,1.52,1.52,0,0,0-.64,1.27m-2.57.15a2.94,2.94,0,0,1,1.24-2.54,5.87,5.87,0,0,1,3.48-.88c.32,0,.65,0,1,.05s.68.09,1,.15V8.14a1.62,1.62,0,0,0-.57-1.3,2.29,2.29,0,0,0-1.53-.5,8.83,8.83,0,0,0-3.36.74l-.68-1.89a11.55,11.55,0,0,1,4.34-.85,4.64,4.64,0,0,1,1.74.29,3.59,3.59,0,0,1,1.35.8,3.26,3.26,0,0,1,.89,1.21,4,4,0,0,1,.32,1.56v4.22a.72.72,0,0,0,.18.53.62.62,0,0,0,.53.21,1.23,1.23,0,0,0,.33,0,1.78,1.78,0,0,0,.2,0l.18,2c-.24,0-.44.09-.68.12a5.86,5.86,0,0,1-.74,0,2.3,2.3,0,0,1-1.35-.38,2.07,2.07,0,0,1-.83-1A4.81,4.81,0,0,1,48.7,15a3.4,3.4,0,0,1-1.15-.68,3.29,3.29,0,0,1-1-2.36"></path>
		<path d="M58.67,4.54H60.8L61.12,6A4.2,4.2,0,0,1,62.6,4.72a4.06,4.06,0,0,1,1.88-.44,4,4,0,0,1,2,.5,3.3,3.3,0,0,1,1.3,1.39,4.91,4.91,0,0,1,1.65-1.42,4.28,4.28,0,0,1,2.06-.47A4.44,4.44,0,0,1,73,4.54a3.24,3.24,0,0,1,1.21.8A3,3,0,0,1,75,6.55a4.21,4.21,0,0,1,.3,1.53v6.85H72.65V8.53a1.91,1.91,0,0,0-.56-1.45,2.05,2.05,0,0,0-1.44-.56A2.2,2.2,0,0,0,69,7.23a2.53,2.53,0,0,0-.65,1.83v5.87H65.63V8.53a2,2,0,0,0-.53-1.45,1.93,1.93,0,0,0-1.41-.56A2.22,2.22,0,0,0,62,7.23a2.49,2.49,0,0,0-.65,1.83v5.87H58.64V4.54Z"></path>
		<path d="M85.55,9.71a3.83,3.83,0,0,0-.21-1.33,2.67,2.67,0,0,0-.56-1A2.46,2.46,0,0,0,84,6.67a2.12,2.12,0,0,0-1.06-.24,2.25,2.25,0,0,0-1.74.74A2.62,2.62,0,0,0,80.47,9v1.38a2.8,2.8,0,0,0,.18,1,2.51,2.51,0,0,0,.5.82,2,2,0,0,0,.77.53,2.54,2.54,0,0,0,1,.18A2.5,2.5,0,0,0,84,12.74a2.16,2.16,0,0,0,.83-.68,3.9,3.9,0,0,0,.56-1A3.7,3.7,0,0,0,85.55,9.71ZM77.88,4.54H80l.32,1.33a3.87,3.87,0,0,1,3.25-1.59,4.46,4.46,0,0,1,1.89.41,4.6,4.6,0,0,1,1.47,1.12,5,5,0,0,1,1,1.71,6.58,6.58,0,0,1,.35,2.19,6.56,6.56,0,0,1-.35,2.18,5.31,5.31,0,0,1-1,1.71,4.6,4.6,0,0,1-1.47,1.12,4.36,4.36,0,0,1-1.89.41,4.12,4.12,0,0,1-1.71-.35,3.43,3.43,0,0,1-1.33-1.06V20H77.88Z"></path>
		<path d="M9,12.27a2.29,2.29,0,0,1-1.68.59H4V8.58H7.35A2.53,2.53,0,0,1,9,9.17a2.06,2.06,0,0,1,.62,1.54A1.85,1.85,0,0,1,9,12.27ZM4,2.8h3a2.14,2.14,0,0,1,1.53.56A1.81,1.81,0,0,1,9.2,4.81a1.8,1.8,0,0,1-.59,1.41,2.22,2.22,0,0,1-1.53.54H4Zm7.7,6.05A3.64,3.64,0,0,0,10,7.52a3.19,3.19,0,0,0,1.39-1.18,3.3,3.3,0,0,0,.53-1.86A3.44,3.44,0,0,0,11.56,3a3.21,3.21,0,0,0-.91-1.18A4.16,4.16,0,0,0,9.26,1,5.77,5.77,0,0,0,7.49.77H0V2.65H0a2.08,2.08,0,0,1,2.06,2.1A2.07,2.07,0,0,1,0,6.84V8.55H0a2.08,2.08,0,0,1,2.06,2.1V11A2.08,2.08,0,0,1,0,13.07H0V15H7.82a5.09,5.09,0,0,0,1.83-.3,4,4,0,0,0,1.44-.8A3.52,3.52,0,0,0,12,12.63a3.65,3.65,0,0,0,.35-1.6A3.63,3.63,0,0,0,11.74,8.85Z"></path>
	</g>
</svg>